<?xml version="1.0" standalone="no"?>
<!DOCTYPE svg PUBLIC "-//W3C//DTD SVG 20010904//EN"
 "http://www.w3.org/TR/2001/REC-SVG-20010904/DTD/svg10.dtd">
<svg version="1.0" xmlns="http://www.w3.org/2000/svg"
 width="326.000000pt" height="332.000000pt" viewBox="0 0 326.000000 332.000000"
 preserveAspectRatio="xMidYMid meet">

<g transform="translate(0.000000,332.000000) scale(0.100000,-0.100000)"
fill="#000000" stroke="none">
<path d="M278 3235 c-70 -42 -132 -83 -137 -93 -12 -22 -14 -17 115 -242 52
-92 94 -177 94 -190 0 -14 -9 -54 -20 -88 -36 -116 -22 -197 61 -341 l48 -85
-18 -30 c-80 -133 -381 -668 -381 -679 0 -8 8 -21 18 -30 15 -14 49 -17 213
-19 l194 -3 0 -667 c0 -655 0 -667 20 -682 18 -14 156 -15 1148 -16 1114 0
1127 0 1147 20 20 20 20 33 20 685 l0 665 194 0 c209 0 226 4 226 53 0 20
-414 745 -440 771 -6 6 -10 153 -10 417 0 357 -2 410 -16 423 -13 13 -44 16
-182 16 l-167 -1 -203 -168 -203 -169 -82 -4 c-64 -4 -94 -11 -137 -32 -67
-34 -142 -111 -167 -171 l-18 -45 -72 0 -73 0 0 208 c0 236 -4 252 -65 252
-132 0 -297 -84 -374 -190 l-28 -39 -24 25 c-38 41 -119 83 -184 96 -82 15
-111 48 -215 233 -89 160 -114 195 -139 195 -9 0 -73 -34 -143 -75z m158 -117
c14 -26 13 -27 -50 -62 -35 -20 -68 -36 -73 -36 -5 0 -19 18 -32 40 l-22 39
23 14 c103 64 112 68 126 49 8 -9 20 -29 28 -44z m2232 -470 l2 -368 -95 0
-95 0 0 363 c0 200 3 367 7 371 4 4 46 5 93 4 l85 -3 3 -367z m-2127 292 c38
-72 94 -125 146 -139 21 -6 63 -17 93 -25 39 -11 66 -26 92 -53 32 -34 258
-414 258 -435 0 -5 -140 -7 -311 -6 l-312 3 -44 82 c-38 70 -44 90 -44 140 0
32 7 78 15 102 28 77 21 140 -24 227 -22 43 -40 81 -40 85 0 9 111 78 127 79
6 0 26 -27 44 -60z m1839 -325 l0 -335 -49 0 -49 0 14 47 c19 63 18 130 -5
202 -22 72 -85 159 -136 191 -21 13 -33 26 -28 31 26 26 239 199 246 199 4 0
7 -151 7 -335z m-1040 -36 l0 -300 -42 3 -41 3 -103 180 c-57 99 -103 187
-104 195 0 24 59 102 106 140 24 19 67 45 96 57 96 40 88 64 88 -278z m706 82
c98 -44 156 -134 157 -243 0 -35 -7 -73 -18 -98 l-18 -40 -222 0 -223 0 -16
40 c-23 59 -21 160 5 215 41 88 133 145 234 145 37 0 76 -8 101 -19z m-463
-278 c4 -21 9 -53 13 -70 l7 -33 -77 0 -76 0 0 70 0 70 64 0 63 0 6 -37z m76
-265 c-10 -29 -61 -170 -113 -313 l-93 -260 -619 -3 c-341 -1 -625 0 -632 3
-16 6 -17 4 139 272 67 114 140 240 163 280 l41 72 560 3 c308 2 563 2 567 1
3 -2 -2 -27 -13 -55z m1114 -40 c193 -331 297 -516 297 -526 0 -9 -118 -12
-512 -10 l-512 3 -108 305 c-59 168 -108 308 -108 313 0 4 200 7 444 7 l445 0
54 -92z m-1073 -1038 l0 -860 -565 0 -565 0 0 630 0 630 468 0 c360 0 472 3
483 13 9 6 42 86 74 177 78 224 96 270 101 270 2 0 4 -387 4 -860z m149 748
c77 -221 115 -324 124 -335 7 -10 92 -13 363 -13 l354 0 0 -630 0 -630 -442 2
-443 3 -3 848 c-1 483 2 847 7 847 5 0 23 -42 40 -92z"/>
</g>
</svg>
